HIERARCHY
ROOT Hips
{
    OFFSET 0.000000 0.000000 0.000000
    CHANNELS 6 Xposition Yposition Zposition Zrotation Xrotation Yrotation
    JOINT Spine
    {
        OFFSET -0.000000 7.979263 0.000000
        CHANNELS 3 Zrotation Xrotation Yrotation
        JOINT Spine1
        {
            OFFSET -0.000000 24.719021 0.000000
            CHANNELS 3 Zrotation Xrotation Yrotation
            JOINT Neck
            {
                OFFSET -0.000000 24.617504 2.237955
                CHANNELS 3 Zrotation Xrotation Yrotation
                JOINT Head
                {
                    OFFSET -0.000000 13.623132 -1.946162
                    CHANNELS 3 Zrotation Xrotation Yrotation
                    End Site
                    {
                        OFFSET -0.000000 24.327021 0.000000
                    }
                }
            }
            JOINT LeftShoulder
            {
                OFFSET 3.885773 23.018444 -0.302444
                CHANNELS 3 Zrotation Xrotation Yrotation
                JOINT LeftArm
                {
                    OFFSET 10.447750 0.000000 0.000000
                    CHANNELS 3 Zrotation Xrotation Yrotation
                    JOINT LeftForeArm
                    {
                        OFFSET 29.090096 0.000000 0.000000
                        CHANNELS 3 Zrotation Xrotation Yrotation
                        JOINT LeftHand
                        {
                            OFFSET 28.893339 0.000000 0.000000
                            CHANNELS 3 Zrotation Xrotation Yrotation
                            End Site
                            {
                                OFFSET 14.596213 0.000000 0.000000
                            }
                        }
                    }
                }
            }
            JOINT RightShoulder
            {
                OFFSET -3.864586 23.018444 -0.302444
                CHANNELS 3 Zrotation Xrotation Yrotation
                JOINT RightArm
                {
                    OFFSET -10.447750 0.000000 0.000000
                    CHANNELS 3 Zrotation Xrotation Yrotation
                    JOINT RightForeArm
                    {
                        OFFSET -29.090096 0.000000 0.000000
                        CHANNELS 3 Zrotation Xrotation Yrotation
                        JOINT RightHand
                        {
                            OFFSET -28.893339 0.000000 0.000000
                            CHANNELS 3 Zrotation Xrotation Yrotation
                            End Site
                            {
                                OFFSET -14.596213 0.000000 0.000000
                            }
                        }
                    }
                }
            }
        }
    }
    JOINT LeftUpLeg
    {
        OFFSET 9.730808 0.000000 0.000000
        CHANNELS 3 Zrotation Xrotation Yrotation
        JOINT LeftLeg
        {
            OFFSET -0.000000 -34.800129 0.000000
            CHANNELS 3 Zrotation Xrotation Yrotation
            JOINT LeftFoot
            {
                OFFSET -0.000000 -44.597416 0.000000
                CHANNELS 3 Zrotation Xrotation Yrotation
                JOINT LeftToeBase
                {
                    OFFSET -0.000000 -6.325025 14.596213
                    CHANNELS 3 Zrotation Xrotation Yrotation
                    End Site
                    {
                        OFFSET -0.000000 0.000000 3.892323
                    }
                }
            }
        }
    }
    JOINT RightUpLeg
    {
        OFFSET -9.730808 0.000000 0.000000
        CHANNELS 3 Zrotation Xrotation Yrotation
        JOINT RightLeg
        {
            OFFSET -0.000000 -34.800129 0.000000
            CHANNELS 3 Zrotation Xrotation Yrotation
            JOINT RightFoot
            {
                OFFSET -0.000000 -44.597416 0.000000
                CHANNELS 3 Zrotation Xrotation Yrotation
                JOINT RightToeBase
                {
                    OFFSET -0.000000 -6.325025 14.596213
                    CHANNELS 3 Zrotation Xrotation Yrotation
                    End Site
                    {
                        OFFSET -0.000000 0.000000 3.892323
                    }
                }
            }
        }
    }
}
MOTION
Frames:    14
Frame Time:    0.008333
24.883549    85.837959    47.325951    -1.786839    4.977060    71.786560    -7.937494    -0.273769    -2.035944    16.161442    -19.080263    0.716815    -5.358197    18.962748    8.405509    -3.885650    -3.027875    7.958073    4.342764    -1.299173    -16.803377    7.973435    -19.211704    -31.255468    5.891154    -7.137972    -9.012984    35.986752    -2.807763    11.907153    -4.341591    7.749517    11.752343    74.890320    62.305870    -3.951468    6.201379    -12.911295    8.359838    7.555654    -13.189166    2.551795    5.744340    -22.240955    -0.817852    -0.299821    15.908577    5.002526    -10.538786    -1.222645    4.996348    0.000000    0.000000    0.000000    -14.208675    6.123254    -0.851145    3.442108    4.738899    -1.473880    8.097510    -6.606694    -3.465370    0.000000    0.000000    0.000000    
25.469387    85.773552    47.188377    -1.659855    4.736960    71.441658    -7.816011    -0.452601    -1.871651    16.085886    -18.880507    0.851096    -5.902553    19.068701    8.441040    -3.376339    -3.152792    8.056558    4.515736    -1.252988    -16.300488    9.510737    -16.073864    -31.396093    7.105099    -5.892902    -9.892654    32.377579    -2.896980    8.214715    -4.515694    7.465407    11.921839    75.696396    61.707550    -4.477280    6.370752    -12.926917    8.139894    7.092991    -13.232286    2.264697    5.962262    -21.788872    -1.108754    -0.333431    15.563605    5.203326    -10.789808    -1.212558    5.137586    0.000000    0.000000    0.000000    -14.312382    6.437538    -0.735296    3.544683    4.905972    -1.639062    8.358107    -6.525869    -3.264818    0.000000    0.000000    0.000000    
26.067245    85.696251    47.036434    -1.530705    4.478831    71.233032    -7.649037    -0.568235    -1.761432    15.993258    -18.826742    0.944936    -6.518580    19.163841    8.536076    -2.793169    -3.129818    8.231689    4.504097    -0.949402    -15.749789    11.702096    -12.053964    -31.616766    8.553782    -5.744952    -10.740299    31.086567    -3.654728    4.641421    -4.513614    7.722197    12.062697    75.472427    61.079048    -4.202876    6.428738    -12.933699    7.953613    7.386059    -13.232033    2.187597    6.059659    -21.315498    -1.381864    -0.228289    15.244237    5.217932    -10.438260    -1.274998    5.258107    0.000000    0.000000    0.000000    -14.362149    6.706394    -1.163152    3.514047    5.271445    -1.645776    8.743496    -6.452765    -2.751144    0.000000    0.000000    0.000000    
26.675352    85.595833    46.891968    -1.401997    4.149964    70.960579    -7.413103    -0.726781    -1.609162    15.824228    -18.662422    1.054289    -6.916451    19.398926    8.514143    -2.391440    -3.359213    8.244903    4.883726    -0.700668    -15.481196    13.695370    -7.603290    -31.645346    10.288288    -6.056215    -12.102417    30.672197    -4.148028    2.997111    -4.522612    7.757327    12.213500    75.663101    60.811939    -4.291800    6.499146    -13.104844    7.810784    7.570859    -13.394142    2.222216    6.297769    -20.791155    -1.620339    -0.314270    14.943354    5.961284    -10.711934    -1.166680    5.208672    0.000000    0.000000    0.000000    -14.349798    6.979547    -1.335080    3.459782    5.628033    -1.600479    9.153580    -6.434237    -2.386305    0.000000    0.000000    0.000000    
27.290968    85.479179    46.731216    -1.272110    3.885592    70.759407    -7.315649    -0.857449    -1.463940    15.802602    -18.557917    1.188763    -7.629295    19.462465    8.618561    -1.533147    -3.511837    8.471292    5.037577    -0.424164    -15.158232    16.263554    -2.757611    -31.805182    11.814435    -7.045212    -13.795521    31.177700    -4.763437    3.080120    -4.675752    7.750362    12.282388    75.949692    60.585915    -4.412494    6.628311    -13.219000    7.698399    7.278485    -13.527782    2.030889    6.371537    -20.283754    -1.866753    -0.392914    14.809217    6.999978    -10.872524    -0.746659    5.123344    0.000000    0.000000    0.000000    -14.447803    7.252159    -1.449985    3.458951    5.933837    -2.443528    9.593964    -6.277328    -1.180811    0.000000    0.000000    0.000000    
27.906551    85.363029    46.563660    -1.138549    3.525698    70.564995    -7.105460    -0.982016    -1.369508    15.794662    -18.306604    1.252264    -8.291313    19.183630    8.627713    -0.799485    -3.361829    8.609455    5.248428    -0.459202    -14.830477    18.714180    2.472751    -31.948050    13.641762    -8.716137    -15.852077    32.320210    -5.644675    4.096206    -4.896763    7.690882    12.440888    76.274834    60.639565    -4.547537    6.552871    -13.417769    7.656573    7.456623    -13.721966    1.935541    6.526618    -19.833849    -1.987358    -0.458454    14.957030    7.736979    -11.309997    0.578949    5.127795    0.000000    0.000000    0.000000    -14.458804    7.545381    -1.564362    3.421796    6.304386    -2.470301    9.812304    -6.169706    -0.726446    0.000000    0.000000    0.000000    
28.523323    85.233429    46.368973    -1.031822    3.218196    70.467995    -6.980447    -1.085236    -1.297468    15.792804    -18.204273    1.314666    -8.876269    19.345314    8.640520    -0.078895    -3.745363    8.714583    5.355917    -0.213460    -14.658228    21.307953    7.165545    -32.081230    15.621853    -9.646506    -17.819586    33.454494    -5.658187    5.187251    -5.011219    7.655745    12.502668    76.534149    60.861515    -4.753919    6.497030    -13.558756    7.587945    7.802244    -13.841849    2.053188    6.563209    -19.660339    -2.198582    -0.526100    15.661561    8.197031    -11.676519    1.833451    5.099826    0.000000    0.000000    0.000000    -14.536560    7.831059    -1.780928    3.322100    6.783263    -1.704012    10.244457    -6.348991    -0.839113    0.000000    0.000000    0.000000    
29.123470    85.112206    46.166306    -0.979109    2.879747    70.300362    -6.810655    -1.193174    -1.238553    15.742774    -18.089470    1.353991    -9.013437    19.304913    8.613049    0.163961    -3.861415    8.727635    5.564950    -0.038896    -14.360426    23.956209    11.756593    -32.285324    17.762074    -10.753873    -19.376028    34.090885    -6.483817    4.114644    -5.087091    7.788146    12.573546    76.447159    61.276287    -4.606449    6.353500    -13.732573    7.586482    8.022789    -13.993644    2.179743    6.715182    -19.739822    -2.012640    -0.617889    16.677055    8.109915    -11.413052    2.313258    4.825628    0.000000    0.000000    0.000000    -14.596203    7.966466    -1.804934    3.335728    7.191365    -2.583405    10.746677    -6.044375    0.394374    0.000000    0.000000    0.000000    
29.708183    84.986855    45.960304    -0.909462    2.591480    70.188736    -6.701726    -1.247172    -1.246181    15.649895    -18.000866    1.320818    -9.147289    19.153408    8.597595    0.514422    -3.912941    8.782270    6.084574    -0.008715    -14.085565    25.440598    14.305935    -32.397461    18.867661    -10.677838    -20.892086    35.344982    -6.663929    1.724752    -5.079633    7.661381    12.692203    76.744911    61.596706    -4.897747    6.243188    -13.811826    7.547450    8.081821    -14.055861    2.276953    6.806563    -19.872351    -1.725734    -0.726511    17.627851    7.969655    -11.080080    2.773877    4.707730    0.000000    0.000000    0.000000    -14.756695    8.119610    -1.860317    3.399507    7.669815    -2.526523    11.162576    -5.988995    0.785410    0.000000    0.000000    0.000000    
30.247692    84.896606    45.743744    -0.899353    2.300718    69.923645    -6.596498    -1.335114    -1.200068    15.616762    -17.841871    1.343114    -9.343904    18.874460    8.578157    0.968869    -3.976047    8.861473    6.548994    -0.030311    -13.661155    26.435804    15.223271    -32.551907    19.308746    -9.341628    -21.930443    36.294983    -6.613489    -3.121458    -4.929786    7.558889    12.855519    76.699036    61.709705    -5.017114    6.183313    -13.828107    7.538459    7.990335    -14.066236    2.326383    7.021886    -20.039284    -1.360670    -0.907994    18.431713    8.334703    -10.912154    3.774114    4.456868    0.000000    0.000000    0.000000    -14.839247    7.964012    -1.837085    3.329960    8.400113    -2.596917    11.650892    -5.813290    1.344172    0.000000    0.000000    0.000000    
30.815092    84.820160    45.518269    -0.787894    2.118327    69.885284    -6.806114    -1.381597    -1.144520    15.789495    -17.707973    1.412511    -9.162387    18.736116    8.411573    0.961221    -4.025617    8.704015    7.192677    0.042280    -13.704678    26.579790    14.988481    -32.555283    19.428280    -6.899106    -22.359882    38.745502    -5.560892    -7.191874    -4.935568    7.532384    12.725410    76.482773    61.706150    -4.960896    6.202322    -13.717541    7.537860    8.032697    -13.941805    2.536483    6.949129    -20.229397    -1.046772    -0.940360    19.366772    7.856690    -9.891547    4.399904    4.667745    0.000000    0.000000    0.000000    -15.116590    8.066842    -1.892525    3.397576    8.942226    -2.753631    12.064164    -5.547782    1.890769    0.000000    0.000000    0.000000    
31.347477    84.767761    45.301842    -0.723895    1.899759    69.733421    -6.977363    -1.523614    -1.078113    16.109785    -17.331797    1.486026    -9.589759    18.318571    8.330303    1.484651    -4.115946    8.740830    7.602755    -0.272961    -13.443020    26.510597    14.412439    -32.843174    19.703981    -3.981511    -21.733408    40.822666    -4.419771    -11.408566    -5.209574    7.284567    12.629170    76.532722    61.485432    -4.828247    6.120581    -13.521530    7.317257    8.014743    -13.722557    2.640218    7.028210    -20.404058    -0.548586    -1.037000    20.339792    6.771809    -9.251240    4.229782    5.547100    0.000000    0.000000    0.000000    -15.309020    8.004567    -1.994712    3.375417    9.605449    -2.830023    12.316919    -5.116885    2.547871    0.000000    0.000000    0.000000    
31.928808    84.744606    45.064053    -0.547856    1.752743    69.705421    -7.156556    -1.671301    -1.089692    16.282822    -16.806223    1.436161    -9.868849    17.951132    8.256543    1.743218    -4.314371    8.741847    7.966286    -0.611251    -13.336579    26.039494    13.271431    -32.802940    19.757122    -0.654549    -20.422541    43.587353    -3.271850    -15.434414    -5.393225    6.999856    12.653755    76.552925    60.989227    -4.760115    6.204742    -13.264084    7.171023    7.642940    -13.470149    2.656492    6.874476    -20.462088    -0.337798    -1.121139    21.256313    6.550232    -8.375848    4.415774    5.725761    0.000000    0.000000    0.000000    -15.648682    8.145043    -2.216741    3.388538    10.156138    -2.812192    12.913303    -4.581009    3.069770    0.000000    0.000000    0.000000    
32.519867    84.722519    44.829895    -0.335728    1.551983    69.621292    -7.282384    -1.755749    -1.024471    16.459150    -16.319080    1.463162    -10.070049    17.262934    8.140877    1.950945    -3.986135    8.716183    8.125556    -1.035255    -13.412627    25.341187    11.804206    -32.600300    19.400930    2.356056    -18.878441    45.634590    -1.770819    -17.395502    -5.687853    6.690442    12.487632    76.542702    60.331093    -4.506499    6.332950    -12.892551    6.917045    7.315004    -13.107188    2.548777    6.763038    -20.330345    -0.242094    -1.267776    22.045624    6.298005    -7.839190    4.018821    6.060544    0.000000    0.000000    0.000000    -16.012159    8.413805    -2.254700    3.512616    10.519362    -2.837377    13.240734    -3.980975    3.562601    0.000000    0.000000    0.000000    
